<svg width="14" height="14" viewBox="0 0 14 14" fill="none" xmlns="http://www.w3.org/2000/svg">
<path d="M13.5041 3.15006L11.8707 1.51672C11.8162 1.46328 11.7429 1.43335 11.6666 1.43335C11.5902 1.43335 11.5169 1.46328 11.4624 1.51672L4.57906 8.40006C4.52454 8.4535 4.45124 8.48343 4.3749 8.48343C4.29855 8.48343 4.22525 8.4535 4.17073 8.40006L2.5374 6.76673C2.48287 6.71328 2.40957 6.68335 2.33323 6.68335C2.25688 6.68335 2.18358 6.71328 2.12906 6.76673L0.495729 8.40006C0.442287 8.45458 0.412354 8.52788 0.412354 8.60423C0.412354 8.68057 0.442287 8.75387 0.495729 8.80839L4.17073 12.4834C4.22525 12.5368 4.29855 12.5668 4.3749 12.5668C4.45124 12.5668 4.52454 12.5368 4.57906 12.4834L13.5041 3.55839C13.5575 3.50387 13.5874 3.43057 13.5874 3.35422C13.5874 3.27788 13.5575 3.20458 13.5041 3.15006Z" fill="white"/>
</svg>
